<svg width="1215" height="287" viewBox="0 0 1215 287" fill="none" xmlns="http://www.w3.org/2000/svg">
<path d="M792.58 86.4471C795.395 86.4471 797.826 87.4707 799.873 89.518C801.92 91.5653 802.944 93.9964 802.944 96.8114V135.582C802.944 138.397 801.92 140.828 799.873 142.875C797.826 144.922 795.395 145.946 792.58 145.946H757.648C734.104 145.946 722.333 157.718 722.333 181.262V275.692C722.333 278.507 721.309 280.938 719.262 282.986C717.214 285.033 714.783 286.056 711.968 286.056H663.601C660.786 286.056 658.355 285.033 656.308 282.986C654.261 280.938 653.237 278.507 653.237 275.692V96.8114C653.237 93.9964 654.261 91.5653 656.308 89.518C658.355 87.4707 660.786 86.4471 663.601 86.4471H708.13C710.945 86.4471 713.376 87.4707 715.423 89.518C717.47 91.5653 718.494 93.9964 718.494 96.8114V105.64C724.38 100.01 731.417 95.4039 739.606 91.8212C748.051 88.2385 758.032 86.4471 769.548 86.4471H792.58Z" fill="#FCFCFC"/>
<path d="M435.691 225.204C435.691 208.314 442.089 194.367 454.884 183.363C467.936 172.359 489.048 164.297 518.222 159.179L563.134 151.502C563.134 145.36 561.47 140.37 558.144 136.531C554.817 132.437 549.059 130.389 540.87 130.389C534.984 130.389 530.377 131.285 527.051 133.077C523.98 134.612 521.677 136.019 520.141 137.299C517.838 139.346 515.663 140.626 513.615 141.138C511.568 141.649 509.137 141.905 506.322 141.905H457.571C455.012 141.905 452.837 141.138 451.045 139.602C449.51 138.067 448.87 136.019 449.126 133.46C449.638 127.574 452.197 121.433 456.803 115.035C461.41 108.637 467.68 102.751 475.613 97.3771C483.802 92.003 493.398 87.5246 504.403 83.9419C515.663 80.3592 527.818 78.5678 540.87 78.5678C556.48 78.5678 570.043 80.4871 581.559 84.3258C593.075 88.1644 602.544 93.5385 609.965 100.448C617.643 107.102 623.273 115.163 626.855 124.632C630.438 133.844 632.229 144.081 632.229 155.341V274.345C632.229 277.16 631.206 279.591 629.159 281.639C627.111 283.686 624.68 284.71 621.865 284.71H573.498C570.683 284.71 568.252 283.686 566.205 281.639C564.157 279.591 563.134 277.16 563.134 274.345V260.903C556.992 268.581 549.315 274.722 540.102 279.329C531.145 283.679 519.245 285.854 504.403 285.854C493.398 285.854 483.546 284.319 474.845 281.248C466.4 278.177 459.235 273.955 453.349 268.581C447.719 263.207 443.368 256.809 440.297 249.387C437.226 241.966 435.691 233.905 435.691 225.204ZM523.212 234.033C528.842 234.033 534.088 233.137 538.95 231.346C543.813 229.298 548.035 226.611 551.618 223.285C555.201 219.958 558.016 216.119 560.063 211.769C562.11 207.162 563.134 202.3 563.134 197.182L527.818 202.556C520.909 203.836 515.279 206.011 510.928 209.082C506.834 212.153 504.786 216.119 504.786 220.981C504.786 225.844 506.322 229.298 509.393 231.346C512.72 233.137 517.326 234.033 523.212 234.033Z" fill="#FCFCFC"/>
<path d="M894.492 275.692C894.492 278.507 893.468 280.938 891.421 282.986C889.374 285.033 886.943 286.057 884.128 286.057H833.841C831.026 286.057 828.595 285.033 826.548 282.986C824.501 280.938 823.477 278.507 823.477 275.692V225.406C823.477 222.591 824.501 220.16 826.548 218.113C828.595 216.065 831.026 215.042 833.841 215.042H884.128C886.943 215.042 889.374 216.065 891.421 218.113C893.468 220.16 894.492 222.591 894.492 225.406V275.692Z" fill="#FCFCFC"/>
<path d="M894.492 275.692C894.492 278.507 893.468 280.938 891.421 282.986C889.374 285.033 886.943 286.057 884.128 286.057H833.841C831.026 286.057 828.595 285.033 826.548 282.986C824.501 280.938 823.477 278.507 823.477 275.692V225.406C823.477 222.591 824.501 220.16 826.548 218.113C828.595 216.065 831.026 215.042 833.841 215.042H884.128C886.943 215.042 889.374 216.065 891.421 218.113C893.468 220.16 894.492 222.591 894.492 225.406V275.692Z" fill="#FCFCFC"/>
<path d="M983.92 275.692C983.92 278.507 982.897 280.938 980.849 282.986C978.802 285.033 976.371 286.057 973.556 286.057H925.189C922.374 286.057 919.943 285.033 917.896 282.986C915.848 280.938 914.825 278.507 914.825 275.692V96.8114C914.825 93.9965 915.848 91.5653 917.896 89.518C919.943 87.4707 922.374 86.4471 925.189 86.4471H973.556C976.371 86.4471 978.802 87.4707 980.849 89.518C982.897 91.5653 983.92 93.9965 983.92 96.8114V275.692ZM983.92 49.5827C983.92 52.3977 982.897 54.8288 980.849 56.8761C978.802 58.9234 976.371 59.947 973.556 59.947H925.189C922.374 59.947 919.943 58.9234 917.896 56.8761C915.848 54.8288 914.825 52.3977 914.825 49.5827V10.8124C914.825 7.99738 915.848 5.56624 917.896 3.51896C919.943 1.47169 922.374 0.448059 925.189 0.448059H973.556C976.371 0.448059 978.802 1.47169 980.849 3.51896C982.897 5.56624 983.92 7.99738 983.92 10.8124V49.5827Z" fill="#FCFCFC"/>
<path d="M1213.97 168.298C1214.23 172.136 1214.35 177.127 1214.35 183.268C1214.35 189.154 1214.23 194.017 1213.97 197.855C1213.46 210.139 1210.64 221.655 1205.53 232.403C1200.41 243.151 1193.37 252.62 1184.41 260.809C1175.46 268.742 1164.58 275.012 1151.78 279.618C1139.25 284.225 1125.17 286.528 1109.56 286.528C1093.95 286.528 1079.75 284.225 1066.95 279.618C1054.41 275.012 1043.66 268.742 1034.71 260.809C1025.75 252.62 1018.71 243.151 1013.59 232.403C1008.48 221.655 1005.66 210.139 1005.15 197.855C1004.89 194.017 1004.76 189.154 1004.76 183.268C1004.76 177.127 1004.89 172.136 1005.15 168.298C1005.4 156.014 1008.09 144.498 1013.21 133.75C1018.33 123.002 1025.37 113.661 1034.32 105.728C1043.54 97.5388 1054.41 91.141 1066.95 86.5347C1079.75 81.6724 1093.95 79.2412 1109.56 79.2412C1125.17 79.2412 1139.25 81.6724 1151.78 86.5347C1164.58 91.141 1175.46 97.5388 1184.41 105.728C1193.63 113.661 1200.66 123.002 1205.53 133.75C1210.64 144.498 1213.46 156.014 1213.97 168.298ZM1074.24 195.936C1075.01 205.661 1078.47 213.338 1084.61 218.968C1091.01 224.342 1099.32 227.029 1109.56 227.029C1119.8 227.029 1127.99 224.342 1134.13 218.968C1140.52 213.338 1144.11 205.661 1144.88 195.936C1145.39 192.097 1145.64 187.747 1145.64 182.885C1145.64 178.022 1145.39 173.672 1144.88 169.833C1144.11 160.109 1140.52 152.559 1134.13 147.185C1127.99 141.555 1119.8 138.74 1109.56 138.74C1099.32 138.74 1091.01 141.555 1084.61 147.185C1078.47 152.559 1075.01 160.109 1074.24 169.833C1073.73 173.672 1073.48 178.022 1073.48 182.885C1073.48 187.747 1073.73 192.097 1074.24 195.936Z" fill="#FCFCFC"/>
<path d="M337.455 168.032C337.455 75.4778 262.856 0.448059 170.835 0.448059C78.8128 0.448059 0.645074 75.4778 0.645074 168.032V272.628C0.63501 276.175 2.03131 279.579 4.52476 282.087C7.0182 284.595 10.403 285.999 13.9292 285.989H32.9064C36.4327 285.999 39.8174 284.595 42.3109 282.087C44.8043 279.579 46.2006 276.175 46.1905 272.628V185.744C46.1905 178.365 52.138 172.383 59.4746 172.383H86.4982C93.8348 172.383 99.7823 178.365 99.7823 185.744V272.628C99.7721 276.175 101.168 279.579 103.662 282.087C106.155 284.595 109.54 285.999 113.066 285.989H132.044C135.57 285.999 138.955 284.595 141.448 282.087C143.941 279.579 145.338 276.175 145.328 272.628V246.25C145.328 219.86 159.326 195.475 182.049 182.28C204.772 169.085 232.768 169.085 255.491 182.28C278.214 195.475 292.212 219.86 292.212 246.25V272.628C292.212 280.007 298.159 285.989 305.496 285.989H324.247C331.583 285.989 337.531 280.007 337.531 272.628L337.455 168.032ZM96.5561 132.359C94.0703 136.393 90.6606 139.77 86.612 142.208C79.5573 146.279 71.086 147.046 63.4219 144.308C62.3082 143.961 61.2479 143.46 60.2716 142.819C51.5175 137.984 46.0771 128.737 46.0771 118.693C46.0771 108.648 51.5175 99.4012 60.2716 94.5669C61.2938 93.9105 62.4064 93.4089 63.5737 93.0781C73.5364 89.5549 84.6244 92.043 92.1534 99.4913C97.4466 104.408 100.448 111.331 100.428 118.578C100.419 123.442 99.0799 128.21 96.5561 132.359Z" fill="#B3B3B3"/>
<path d="M352.271 168.032C352.271 75.4778 277.672 0.448059 185.65 0.448059C93.6286 0.448059 15.4609 75.4778 15.4609 168.032V272.628C15.4508 276.175 16.8471 279.579 19.3406 282.087C21.834 284.595 25.2188 285.999 28.745 285.989H47.7222C51.2485 285.999 54.6332 284.595 57.1267 282.087C59.6201 279.579 61.0164 276.175 61.0063 272.628V185.744C61.0063 178.365 66.9538 172.383 74.2904 172.383H101.314C108.651 172.383 114.598 178.365 114.598 185.744V272.628C114.588 276.175 115.984 279.579 118.478 282.087C120.971 284.595 124.356 285.999 127.882 285.989H146.859C150.386 285.999 153.77 284.595 156.264 282.087C158.757 279.579 160.154 276.175 160.143 272.628V246.25C160.143 219.86 174.141 195.475 196.864 182.28C219.587 169.085 247.583 169.085 270.306 182.28C293.029 195.475 307.027 219.86 307.027 246.25V272.628C307.027 280.007 312.975 285.989 320.311 285.989H339.062C346.399 285.989 352.347 280.007 352.347 272.628L352.271 168.032ZM111.372 132.359C108.886 136.393 105.476 139.77 101.428 142.208C94.3731 146.279 85.9018 147.046 78.2377 144.308C77.124 143.961 76.0637 143.46 75.0874 142.819C66.3334 137.984 60.8929 128.737 60.8929 118.693C60.8929 108.648 66.3334 99.4012 75.0874 94.5669C76.1096 93.9105 77.2222 93.4089 78.3895 93.0781C88.3522 89.5549 99.4402 92.043 106.969 99.4913C112.262 104.408 115.264 111.331 115.243 118.578C115.235 123.442 113.896 128.21 111.372 132.359Z" fill="#FCFCFC"/>
</svg>
